<?xml version="1.0" encoding="UTF-8" standalone="no"?>
<svg width="2000px" height="2000px" viewBox="0 0 2000 2000" version="1.1" xmlns="http://www.w3.org/2000/svg" xmlns:xlink="http://www.w3.org/1999/xlink" xmlns:sketch="http://www.bohemiancoding.com/sketch/ns">
    <!-- Generator: Sketch 3.5.2 (25235) - http://www.bohemiancoding.com/sketch -->
    <title>rwr-logo-large</title>
    <desc>Created with Sketch.</desc>
    <defs></defs>
    <g id="Page-1" stroke="none" stroke-width="1" fill="none" fill-rule="evenodd" sketch:type="MSPage">
        <g id="rwr-logo-large" sketch:type="MSArtboardGroup">
            <g id="rwr-logo" sketch:type="MSLayerGroup" transform="translate(0.000000, -23.000000)">
                <text id="Real" sketch:type="MSTextLayer" transform="translate(697.196145, 512.376748) rotate(-9.000000) translate(-697.196145, -512.376748) " font-family="TrashHand" font-size="800" font-weight="normal" letter-spacing="9" fill="#FFFFFF">
                    <tspan x="105.196145" y="694.376748">Real</tspan>
                </text>
                <text id="WORLd" sketch:type="MSTextLayer" transform="translate(894.498951, 1031.284372) rotate(-14.000000) translate(-894.498951, -1031.284372) " font-family="TrashHand" font-size="800" font-weight="normal" letter-spacing="9" fill="#FFFFFF">
                    <tspan x="109.498951" y="1213.28437">WORLd</tspan>
                </text>
                <text id="react" sketch:type="MSTextLayer" transform="translate(1181.346787, 1530.136897) rotate(-20.000000) translate(-1181.346787, -1530.136897) " font-family="TrashHand" font-size="800" font-weight="normal" letter-spacing="9" fill="#FFFFFF">
                    <tspan x="459.846787" y="1712.1369">react</tspan>
                </text>
                <g id="react-logo-official" transform="translate(1504.000000, 116.000000)" sketch:type="MSShapeGroup">
                    <ellipse id="Oval" fill="#00D8FF" cx="183.403192" cy="164.281337" rx="33.9367365" ry="33.9272492"></ellipse>
                    <path d="M183.403192,95.3001457 C228.967862,95.3001457 271.296275,101.836452 303.211703,112.820692 C341.665265,126.054936 365.308077,146.11629 365.308077,164.281337 C365.308077,183.211264 340.250755,204.522394 298.95735,218.200282 C267.737338,228.541374 226.656346,233.938814 183.403192,233.938814 C139.05753,233.938814 97.0646487,228.872078 65.5003111,218.08599 C25.5571504,204.437182 1.49830633,182.84945 1.49830633,164.281337 C1.49830633,146.26372 24.0722872,126.357913 61.9853455,113.14328 C94.0198334,101.978472 137.3934,95.3001457 183.403192,95.3001457 L183.403192,95.3001457 Z" id="Shape" stroke="#00D8FF" stroke-width="16.0906217"></path>
                    <path d="M123.33692,129.989569 C146.099637,90.5296229 172.909707,57.1373161 198.371561,34.9848857 C229.049715,8.29457496 258.24436,-2.15878066 273.984587,6.91562742 C290.387761,16.3721372 296.336684,48.7195819 287.559417,91.3134386 C280.923195,123.516834 265.077437,161.790575 243.469463,199.249391 C221.315573,237.654331 195.947073,271.489605 170.831574,293.437121 C139.050088,321.210842 108.325257,331.261131 92.2352915,321.985189 C76.622918,312.98382 70.6516705,283.490303 78.1416051,244.054703 C84.4700315,210.734083 100.351642,169.835675 123.33692,129.989569 L123.33692,129.989569 Z" id="Shape" stroke="#00D8FF" stroke-width="16.0906217"></path>
                    <path d="M123.39442,199.349481 C100.566085,159.927406 85.0173001,120.029903 78.5359902,86.9135207 C70.7267593,47.0133118 76.2481507,16.5060419 91.9734956,7.40525862 C108.360433,-2.07897889 139.363973,8.92284483 171.892288,37.7975599 C196.486224,59.6280781 221.7404,92.4665065 243.411286,129.889479 C265.629441,168.257223 282.282233,207.127448 288.759484,239.84144 C296.956336,281.238947 290.321466,312.869528 274.24706,322.172521 C258.649569,331.199589 230.107723,321.642312 199.673099,295.459893 C173.958243,273.337895 146.446669,239.157039 123.39442,199.349481 L123.39442,199.349481 Z" id="Shape" stroke="#00D8FF" stroke-width="16.0906217"></path>
                </g>
            </g>
        </g>
    </g>
</svg>